:SAMPLES-PER-SECOND 30
:FULLY-SPECIFIED
:DEGREES
66
root  24.7527 39.5625 -29.6063 131.364 -84.967 -133.932
RightUpLeg  -10.7065 -16.2578 3.23946
RightLeg  20.678 -1.41247 1.45413
RightFoot  -5.71298 0.131438 -3.46771
RightToes  2.91037e-010 0 -3.6325e-017
Spine  6.73376 -1.10571 13.531
Spine1  7.96997 0.188511 -1.08057
HEad  -6.66653 2.04759 -5.27731
LeftShoulder1  8.52874 -11.8756 -48.4044
LeftArm  -4.12216 14.1041 -29.861
LeftForeArm  26.5986 -15.8047 -5.07178
LeftHand  -0.244104 0.0205437 5.32207
RightShoulder  5.80873 9.04557 40.1407
RightArm  2.25083 -7.25763 32.6544
RightForeArm  -1.76896 32.9357 7.39926
RightHand  -1.10345 1.71525 -18.0931
LeftUpLeg  -14.4115 6.844 3.86486
LeftLeg  60.2874 3.3068 6.84148
LeftFoot  1.70561 0.239276 -2.16831
LeftToes  -2.38291e-010 7.29328e-011 -2.49822e-011
67
root  23.3434 39.8591 -29.7451 135.815 -85.174 -138.336
RightUpLeg  -6.88864 -12.8653 1.47298
RightLeg  18.1465 -4.54831 2.37128
RightFoot  -6.43557 0.0653586 -2.54045
RightToes  2.91037e-010 0 -3.6325e-017
Spine  6.21471 -0.504304 13.4827
Spine1  8.37821 0.88746 -1.80645
HEad  -6.19581 1.75955 -5.34155
LeftShoulder1  8.45869 -11.8348 -48.1323
LeftArm  -5.14298 16.007 -29.729
LeftForeArm  26.4276 -14.9653 -5.20775
LeftHand  -0.244104 0.0205437 5.32207
RightShoulder  5.75998 8.96699 40.0468
RightArm  2.89841 -5.67726 33.0698
RightForeArm  -0.645796 37.5738 8.66864
RightHand  -1.03044 1.2778 -17.982
LeftUpLeg  -17.9738 6.5674 2.64219
LeftLeg  55.6667 2.85435 5.00912
LeftFoot  -0.0771733 0.146348 -1.48715
LeftToes  -2.38291e-010 7.29328e-011 -2.49822e-011
68
root  21.9362 40.0597 -29.8626 141.108 -85.24 -143.529
RightUpLeg  -3.3314 -10.2326 0.268183
RightLeg  15.6602 -6.56118 3.19892
RightFoot  -7.47031 0.0034074 -1.5797
RightToes  2.91037e-010 0 -3.6325e-017
Spine  5.6579 0.144251 13.2652
Spine1  8.59699 1.5569 -2.40914
HEad  -5.44184 1.74678 -5.65901
LeftShoulder1  8.43261 -11.8096 -48.0618
LeftArm  -5.68031 17.9404 -29.3435
LeftForeArm  26.2639 -14.4974 -5.25506
LeftHand  -0.244104 0.0205437 5.32207
RightShoulder  5.86587 9.15195 40.1995
RightArm  3.79841 -4.53978 32.8544
RightForeArm  0.546957 41.7218 9.95159
RightHand  -0.89139 0.568388 -17.3945
LeftUpLeg  -20.5089 6.95945 1.61116
LeftLeg  48.5417 2.45393 3.40558
LeftFoot  -1.6383 0.160092 -1.80088
LeftToes  -2.38291e-010 7.29328e-011 -2.49822e-011
69
root  20.5341 40.1403 -29.9415 144.363 -85.368 -146.574
RightUpLeg  -0.0973382 -9.19709 -0.647306
RightLeg  13.5447 -7.24944 3.92135
RightFoot  -8.66752 -0.0433646 -0.677579
RightToes  2.91037e-010 0 -3.6325e-017
Spine  5.02356 0.660709 13.1307
Spine1  8.69979 2.07405 -3.07776
HEad  -4.76959 2.03163 -6.18951
LeftShoulder1  8.43781 -11.8141 -48.0775
LeftArm  -6.12805 19.8262 -28.9038
LeftForeArm  26.2188 -14.167 -5.25083
LeftHand  -0.244104 0.0205437 5.32207
RightShoulder  6.02564 9.45477 40.3423
RightArm  4.63458 -3.66806 32.575
RightForeArm  1.952 44.8966 11.0338
RightHand  -0.793717 -0.00988497 -17.1289
LeftUpLeg  -22.104 8.34562 0.508768
LeftLeg  39.2889 2.49184 2.53456
LeftFoot  -2.32982 0.204646 -2.53698
LeftToes  -2.38291e-010 7.29328e-011 -2.49822e-011
70
root  19.1305 40.1533 -29.9834 144.339 -85.3959 -146.337
RightUpLeg  3.01778 -8.57866 -1.01764
RightLeg  11.5263 -7.79766 4.18672
RightFoot  -9.48396 -0.0589362 -0.365546
RightToes  2.91037e-010 0 -3.6325e-017
Spine  4.22735 1.09858 13.3805
Spine1  9.11376 2.5833 -3.99702
HEad  -4.46015 2.63522 -6.79357
LeftShoulder1  8.43439 -11.8424 -47.9683
LeftArm  -6.81878 21.4528 -28.692
LeftForeArm  26.2384 -13.8317 -5.19373
LeftHand  -0.244104 0.0205437 5.32207
RightShoulder  6.10305 9.63438 40.2982
RightArm  5.31263 -2.78685 32.6521
RightForeArm  3.4342 46.7597 11.6892
RightHand  -0.792601 -0.0712712 -17.291
LeftUpLeg  -22.639 11.6926 -1.13244
LeftLeg  28.1488 2.83667 2.21363
LeftFoot  -2.26121 0.187018 -2.26245
LeftToes  -2.38291e-010 7.29328e-011 -2.49822e-011
71
root  17.7215 40.0978 -30.0023 142.901 -85.1035 -144.972
RightUpLeg  6.34424 -8.0302 -0.834542
RightLeg  9.58862 -8.09404 3.93801
RightFoot  -10.351 -0.067662 -0.263924
RightToes  2.91037e-010 0 -3.6325e-017
Spine  3.6787 1.53424 13.7787
Spine1  9.78014 3.19494 -4.9453
HEad  -4.44319 3.82776 -7.41445
LeftShoulder1  8.40857 -11.8502 -47.7949
LeftArm  -7.48392 22.7917 -28.6208
LeftForeArm  26.0545 -13.5403 -5.12763
LeftHand  -0.244104 0.0205437 5.32207
RightShoulder  6.15152 9.74319 40.2831
RightArm  6.01656 -1.78825 32.8108
RightForeArm  4.52006 47.1302 11.7709
RightHand  -0.853625 0.309498 -17.4021
LeftUpLeg  -21.8486 15.3954 -2.39108
LeftLeg  16.0782 5.41802 0.894104
LeftFoot  -1.80734 0.146239 -1.61674
LeftToes  -2.38291e-010 7.29328e-011 -2.49822e-011
72
root  16.2827 39.8994 -29.9902 137.745 -84.8432 -140.276
RightUpLeg  9.8091 -7.76664 -0.633207
RightLeg  8.55222 -8.24627 3.70021
RightFoot  -11.9985 -0.074871 0.750702
RightToes  2.91037e-010 0 -3.6325e-017
Spine  3.68646 1.71888 14.1716
Spine1  10.2285 3.61197 -5.66991
HEad  -4.40993 5.65498 -8.07161
LeftShoulder1  8.37292 -11.8031 -47.7376
LeftArm  -7.83368 23.8311 -28.4221
LeftForeArm  25.7045 -13.1502 -5.14582
LeftHand  -0.244104 0.0205437 5.32207
RightShoulder  6.26449 9.92398 40.4873
RightArm  6.91523 -0.7678 32.812
RightForeArm  4.71754 45.7744 11.1996
RightHand  -0.932783 0.840536 -17.4187
LeftUpLeg  -19.3952 10.6146 0.419127
LeftLeg  4.81403 18.4968 -3.90146
LeftFoot  -1.44672 0.154782 -1.69066
LeftToes  -2.38291e-010 7.29328e-011 -2.49822e-011
73
root  14.7643 39.5464 -29.9179 123.658 -84.7653 -126.834
RightUpLeg  12.9659 -8.02737 -0.526185
RightLeg  9.19172 -8.70665 3.76881
RightFoot  -14.007 -0.0366634 2.51815
RightToes  2.91037e-010 0 -3.6325e-017
Spine  3.70067 1.56346 14.9696
Spine1  10.49 3.64939 -6.24555
HEad  -4.28117 7.8496 -8.60787
LeftShoulder1  8.32646 -11.7257 -47.7133
LeftArm  -8.17503 24.4185 -28.2042
LeftForeArm  25.7243 -12.4218 -5.22263
LeftHand  -0.244104 0.0205437 5.32207
RightShoulder  6.37284 10.0851 40.7181
RightArm  7.85793 -0.0357806 32.8629
RightForeArm  3.96836 42.669 10.0718
RightHand  -1.02621 1.38695 -17.6365
LeftUpLeg  -17.4234 5.11582 2.81705
LeftLeg  -3.64097 31.6416 -9.41985
LeftFoot  -2.25425 0.188104 -2.19773
LeftToes  -2.38291e-010 7.29328e-011 -2.49822e-011
74
root  13.1337 39.1429 -29.7978 105.705 -84.4755 -109.365
RightUpLeg  15.6716 -8.85266 -0.633885
RightLeg  10.9242 -8.8522 3.91133
RightFoot  -15.5507 0.051833 4.28691
RightToes  2.91037e-010 0 -3.6325e-017
Spine  2.92704 1.53728 15.7657
Spine1  11.1333 3.70172 -6.60136
HEad  -3.86667 9.99969 -8.76486
LeftShoulder1  8.24172 -11.6319 -47.5165
LeftArm  -8.85531 24.6808 -28.2837
LeftForeArm  26.2237 -11.6166 -5.19986
LeftHand  -0.244104 0.0205437 5.32207
RightShoulder  6.40855 10.1056 40.8986
RightArm  8.67418 0.00441745 32.9033
RightForeArm  2.7535 38.1542 8.64449
RightHand  -1.11651 1.90812 -17.8367
LeftUpLeg  -16.9202 5.65832 2.27246
LeftLeg  -5.73177 36.5343 -11.2419
LeftFoot  -3.59031 0.106945 -1.24916
LeftToes  -2.38291e-010 7.29328e-011 -2.49822e-011
75
root  11.4212 38.8198 -29.6835 92.9525 -84.6121 -96.7601
RightUpLeg  18.3002 -11.9099 -2.59934
RightLeg  12.7742 -5.48608 3.91769
RightFoot  -16.4868 0.213515 7.10475
RightToes  2.91037e-010 0 -3.6325e-017
Spine  1.47161 1.96225 14.6405
Spine1  12.1885 4.00497 -6.25091
HEad  -2.94827 11.9578 -8.31729
LeftShoulder1  8.12842 -11.4906 -47.3005
LeftArm  -9.54944 25.0875 -28.428
LeftForeArm  26.4127 -11.308 -5.0577
LeftHand  -0.244104 0.0205437 5.32207
RightShoulder  6.47948 10.0914 41.4337
RightArm  9.80612 -0.7745 32.5088
RightForeArm  1.29699 32.3528 7.02143
RightHand  -1.17791 2.41034 -17.6285
LeftUpLeg  -16.6559 5.76088 1.16978
LeftLeg  -4.26594 39.065 -11.1087
LeftFoot  -2.72512 -0.282626 3.81992
LeftToes  -2.38291e-010 7.29328e-011 -2.49822e-011
76
root  9.67831 38.574 -29.5728 73.3772 -85.4209 -77.1838
RightUpLeg  20.4581 -18.6056 -7.38248
RightLeg  16.4661 2.83002 3.56714
RightFoot  -16.2936 0.419292 12.4028
RightToes  2.91037e-010 0 -3.6325e-017
Spine  0.0721436 2.42498 11.0819
Spine1  12.7332 3.99029 -4.8959
HEad  -1.68353 13.5319 -7.27154
LeftShoulder1  8.07055 -11.3456 -47.4234
LeftArm  -9.75414 25.5674 -27.9691
LeftForeArm  25.7889 -11.3428 -4.98653
LeftHand  -0.244104 0.0205437 5.32207
RightShoulder  6.65552 10.1402 42.4788
RightArm  10.7852 -2.14185 31.8864
RightForeArm  0.0345582 24.8736 5.70566
RightHand  -1.2401 2.99547 -17.2884
LeftUpLeg  -18.061 7.67658 -1.7206
LeftLeg  3.09247 36.6783 -6.64972
LeftFoot  -1.13882 -0.976303 10.9959
LeftToes  -2.38291e-010 7.29328e-011 -2.49822e-011
77
root  7.9895 38.4473 -29.418 35.0358 -84.9943 -38.9274
RightUpLeg  19.8441 -22.4034 -11.2651
RightLeg  24.4532 7.49222 3.07316
RightFoot  -11.8587 -0.0251162 18.1923
RightToes  2.91037e-010 0 -3.6325e-017
Spine  -0.540831 2.2785 6.79398
Spine1  12.3136 3.31715 -3.29771
HEad  -0.58284 14.1951 -5.97882
LeftShoulder1  8.14419 -11.3583 -47.8206
LeftArm  -9.63778 25.15 -26.8638
LeftForeArm  25.075 -10.8165 -5.06547
LeftHand  -0.244104 0.0205437 5.32207
RightShoulder  6.79862 10.1612 43.3792
RightArm  5.73453 -4.00582 31.7265
RightForeArm  3.55113 15.6786 6.39643
RightHand  -1.26805 3.29609 -17.0812
LeftUpLeg  -19.9364 14.9414 -7.83122
LeftLeg  11.488 25.7523 -0.0566409
LeftFoot  -0.941284 -1.47673 16.2432
LeftToes  -2.38291e-010 7.29328e-011 -2.49822e-011
78
root  6.46657 38.4869 -29.1949 7.64984 -82.0677 -11.7127
RightUpLeg  14.5317 -18.2231 -11.1525
RightLeg  36.1614 4.1053 2.97609
RightFoot  -0.949494 -1.81396 20.1422
RightToes  2.91037e-010 0 -3.6325e-017
Spine  -0.150699 1.81755 3.73684
Spine1  11.6491 2.72526 -2.75872
HEad  0.0177555 13.7419 -5.02576
LeftShoulder1  8.30516 -11.5833 -48.0437
LeftArm  -9.70054 23.1117 -25.9281
LeftForeArm  25.116 -9.52006 -5.16265
LeftHand  -0.244104 0.0205437 5.32207
RightShoulder  6.82478 10.1539 43.5794
RightArm  -5.75939 -6.65055 32.2236
RightForeArm  11.3524 7.01527 7.32378
RightHand  -1.11351 2.50432 -16.4779
LeftUpLeg  -19.8158 19.2142 -12.7739
LeftLeg  15.2605 17.3746 3.42561
LeftFoot  -2.78747 -1.30622 17.4855
LeftToes  -2.38291e-010 7.29328e-011 -2.49822e-011
79
root  5.17105 38.5584 -28.9435 -3.01039 -79.2083 -1.17734
RightUpLeg  6.80461 -13.1961 -10.5817
RightLeg  48.4321 2.94281 3.27259
RightFoot  10.7284 -3.29125 17.2068
RightToes  2.91037e-010 0 -3.6325e-017
Spine  0.862186 1.77654 1.8744
Spine1  11.5749 2.84555 -3.62013
HEad  0.173395 12.8396 -4.86508
LeftShoulder1  8.42603 -11.8182 -47.9966
LeftArm  -9.88817 19.9453 -25.7094
LeftForeArm  25.5986 -8.59688 -5.20129
LeftHand  -0.244104 0.0205437 5.32207
RightShoulder  6.86537 10.2716 43.4575
RightArm  -8.98448 -9.94561 33.0672
RightForeArm  11.6773 2.70387 5.97032
RightHand  -0.847574 1.01458 -15.4462
LeftUpLeg  -17.5244 17.9921 -14.0956
LeftLeg  16.6764 16.2982 3.67464
LeftFoot  -5.57479 -0.794219 16.2816
LeftToes  -2.38291e-010 7.29328e-011 -2.49822e-011
80
root  3.94083 38.6607 -28.6573 -7.11406 -76.7219 2.86298
RightUpLeg  -0.910836 -8.26175 -9.82985
RightLeg  58.122 2.20899 3.31676
RightFoot  15.1503 -2.85028 12.4276
RightToes  2.91037e-010 0 -3.6325e-017
Spine  1.81108 1.84891 0.874765
Spine1  11.8338 2.9884 -4.55063
HEad  0.0609862 12.2389 -5.4343
LeftShoulder1  8.46677 -11.8617 -48.0935
LeftArm  -9.84985 16.7487 -25.8811
LeftForeArm  25.8385 -9.28892 -5.30259
LeftHand  -0.244104 0.0205437 5.32207
RightShoulder  6.96912 10.4496 43.5575
RightArm  -8.63465 -13.0809 32.9645
RightForeArm  12.8731 1.8149 5.85137
RightHand  -0.748963 0.429765 -14.9956
LeftUpLeg  -14.6134 14.8108 -13.7257
LeftLeg  17.1621 17.5875 2.57911
LeftFoot  -7.78595 -0.424113 15.1524
LeftToes  -2.38291e-010 7.29328e-011 -2.49822e-011
